<svg width="400" height="400" viewBox="0 0 400 400" fill="none" xmlns="http://www.w3.org/2000/svg">
  <defs>
    <linearGradient id="bar1" x1="0" y1="0" x2="0" y2="1">
      <stop offset="0%" stop-color="#f59e0b" />
      <stop offset="100%" stop-color="#d97706" />
    </linearGradient>
    <linearGradient id="bar2" x1="0" y1="0" x2="0" y2="1">
      <stop offset="0%" stop-color="#3b82f6" />
      <stop offset="100%" stop-color="#1d4ed8" />
    </linearGradient>
    <linearGradient id="bar3" x1="0" y1="0" x2="0" y2="1">
      <stop offset="0%" stop-color="#ec4899" />
      <stop offset="100%" stop-color="#be123c" />
    </linearGradient>
  </defs>
  
  <path d="M80 260L200 320L320 260L200 200L80 260Z" fill="#e2e8f0" />
  <path d="M80 240L200 300L320 240L200 180L80 240Z" fill="#f1f5f9" />
  <path d="M80 220L200 280L320 220L200 160L80 220Z" fill="white" />
  
  <g transform="skewY(10)">
    <rect x="140" y="80" width="40" height="140" rx="4" fill="url(#bar1)" />
    <rect x="190" y="20" width="40" height="220" rx="4" fill="url(#bar2)" />
    <path d="M240 60H280C300 60 320 80 320 100V140C320 160 300 180 280 180H240V60Z" fill="url(#bar3)" />
  </g>
  
  <rect x="330" y="100" width="15" height="15" fill="#3b82f6" opacity="0.6" />
  <rect x="350" y="80" width="10" height="10" fill="#ec4899" opacity="0.6" />
  <rect x="340" y="130" width="12" height="12" fill="#f59e0b" opacity="0.6" />

</svg>
