<svg width="400" height="400" viewBox="0 0 400 400" fill="none" xmlns="http://www.w3.org/2000/svg">
  <defs>
    <linearGradient id="gradGear" x1="0%" y1="0%" x2="100%" y2="100%">
      <stop offset="0%" style="stop-color:#1e3a8a;stop-opacity:1" />
      <stop offset="100%" style="stop-color:#10b981;stop-opacity:1" />
    </linearGradient>
  </defs>
  <path d="M200 80L220 50H180L200 80ZM285 115L315 100L300 135L285 115ZM320 200L350 220V180L320 200ZM285 285L300 320L315 285L285 285ZM200 320L180 350H220L200 320ZM115 285L85 300L100 265L115 285ZM80 200L50 180V220L80 200ZM115 115L100 80L85 115L115 115Z" fill="#1e3a8a" />
  <circle cx="200" cy="200" r="100" stroke="#1e3a8a" stroke-width="30" />
  <path d="M200 120C200 120 260 180 200 280C140 180 200 120 200 120Z" fill="#10b981" />
  <circle cx="200" cy="180" r="20" fill="white" fill-opacity="0.4" />
</svg>
